<svg width="1400" height="1400" xmlns="http://www.w3.org/2000/svg" version="1.1" style="width: 1em; height: 1em;vertical-align: middle;fill: currentColor;overflow: hidden;" class="svg-icon">

 <g>
  <title>background</title>
  <rect fill="none" id="canvas_background" height="1402" width="1402" y="-1" x="-1"/>
 </g>
 <g>
  <title>Layer 1</title>
  <path id="svg_1" fill="#6B400D" d="m413,662.2c14.7,0 26.6,-11.9 26.6,-26.6c0,-14.7 -11.9,-26.6 -26.6,-26.6c-14.7,0 -26.6,11.9 -26.6,26.6c0,14.7 11.9,26.6 26.6,26.6z"/>
  <path id="svg_2" fill="#6B400D" d="m1110.6,574.3l-8.6,0l0,-117.9c0,-66.7 -54.2,-120.9 -120.9,-120.9l-586,0c-66.7,0 -120.9,54.2 -120.9,120.9l0,483.5c0,66.7 54.2,120.9 120.9,120.9l585.9,0c66.7,0 120.9,-54.2 120.9,-120.9l0,-118l8.6,0c32.4,-0.1 58.7,-26.4 58.7,-58.8l0,-130c0.1,-32.4 -26.2,-58.7 -58.6,-58.8zm-56.2,365.6c0,40.4 -32.9,73.3 -73.3,73.3l-586,0c-40.4,0 -73.3,-32.9 -73.3,-73.3l0,-483.5c0,-40.4 32.9,-73.3 73.3,-73.3l585.9,0c40.4,0 73.3,32.9 73.3,73.3l0,117.9l-328.6,0c-32.4,0.1 -58.7,26.4 -58.7,58.8l0,130.1c0,32.3 26.4,58.7 58.7,58.8l328.7,0l0,117.9zm74.5,-175.1c0,10.1 -8.2,18.3 -18.3,18.3l-384.9,0c-10.1,0 -18.3,-8.2 -18.3,-18.3l0,-130.2c0,-10.1 8.2,-18.3 18.3,-18.3l384.9,0c10.1,0 18.3,8.2 18.3,18.3l0,130.2z"/>
  <path id="svg_3" fill="#FFD524" d="m1114.6,616.3l-384.9,0c-10.1,0 -18.3,8.2 -18.3,18.3l0,130.1c0,10.1 8.2,18.3 18.3,18.3l384.9,0c10.1,0 18.3,-8.2 18.3,-18.3l0,-130.1c0,-10.1 -8.2,-18.3 -18.3,-18.3zm-302.8,134.6c-28.2,0 -51.2,-23 -51.2,-51.2c0,-28.3 22.9,-51.2 51.2,-51.2c28.2,0 51.2,23 51.2,51.2c0.1,28.2 -22.9,51.2 -51.2,51.2z"/>
  <path id="svg_4" fill="#FFD524" d="m811.8,675.7c-11,0 -20,9 -20,20c0,11.1 9,20 20,20c11.1,0 20,-9 20,-20c0.1,-11 -8.9,-20 -20,-20z"/>
  <path id="svg_5" fill="#6B400D" d="m811.8,648.5c-28.3,0 -51.2,23 -51.2,51.2c0,28.3 23,51.2 51.2,51.2c28.2,0 51.2,-23 51.2,-51.2c0.1,-28.2 -22.9,-51.2 -51.2,-51.2zm0,71.2c-11.1,0 -20,-9 -20,-20c0,-11.1 9,-20 20,-20c11.1,0 20,9 20,20c0.1,11.1 -8.9,20 -20,20zm-273.8,200.7l-61,0c-35.7,0 -44.5,-8.7 -44.5,-44.5l0,-156.3l0,-0.9l-0.2,0c-0.5,-11.4 -9.7,-20.6 -21.3,-20.6c-11.5,0 -20.8,9.2 -21.3,20.6l-0.2,0l0,157.2c0,59.6 27.8,87.4 87.4,87.4l61,0c11.8,0 21.4,-9.6 21.4,-21.4c0.2,-11.9 -9.4,-21.5 -21.3,-21.5z"/>
 </g>
</svg>